<svg xmlns="http://www.w3.org/2000/svg" viewBox="0 0 369.99999999999994 134.2582154007184" height="134.2582154007184" width="369.99999999999994" style="width: 370px; height: 134.258px; position: absolute; top: 50%; left: 50%; transform: translate(-50%, -50%) scale(0.338919); z-index: 0; cursor: pointer;"><defs id="SvgjsDefs1865"/><g id="SvgjsG1866" featurekey="symbolFeature-0" transform="matrix(1.5795191912896998,0,0,1.5795191912896998,-36.07822502412307,-3.9481193689525553)" fill="#155263"><path xmlns="http://www.w3.org/2000/svg" d="M65.532,53.661c2.473-2.341,2.081-5.645-0.869-7.341L59.1,43.118c-2.95-1.697-4.723-5.797-3.941-9.109l6.699-28.398  c0.781-3.312-0.602-4.108-3.073-1.767L24.467,36.339c-2.472,2.341-2.08,5.644,0.87,7.342l5.562,3.2  c2.949,1.698,4.724,5.798,3.943,9.109l-6.701,28.398c-0.78,3.312,0.602,4.107,3.074,1.767L65.532,53.661z"/></g><g id="SvgjsG1867" featurekey="nameFeature-0" transform="matrix(1.3384322395192458,0,0,1.3384322395192458,86.14531499701316,32.93881567862596)" fill="#155263"><path d="M15.52 22.8 c2.76 0 5 2.24 5 5 l0 7.24 c0 2.76 -2.24 4.96 -5 4.96 l-12.64 0 l0 -6.4 l11.2 0 l0 -4.36 l-6.24 0 c-2.76 0 -4.96 -2.24 -4.96 -5 l0 -7.24 c0 -2.76 2.24 -5 4.96 -5 l12.68 0 l0 6.44 l-11.24 0 l0 4.36 l6.24 0 z M41.120000000000005 12 c2.76 0 5.04 2.24 5.04 5 l0 10.52 c0 2.76 -2.28 4.96 -5.04 4.96 l-8.44 0 l0 7.52 l-6.4 0 l0 -28 l14.84 0 z M39.68000000000001 26.08 l0 -7.64 l-7 0 l0 7.64 l7 0 z M63.00000000000001 12 l7.8 28 l-6.4 0 l-1.12 -4.04 l-6.92 0 l-1.12 4.04 l-6.4 0 l7.8 -28 l6.36 0 z M58.16000000000001 29.439999999999998 l3.32 0 l-1.68 -5.96 z M89.76000000000002 12 c2.76 0 5 2.24 5 5 l0 10.52 c0 2.12 -1.32 3.92 -3.16 4.64 l3.16 7.84 l-6.8 0 l-3.04 -7.48 l-3.56 0 l0 7.48 l-6.4 0 l0 -28 l14.8 0 z M87.04000000000002 26.08 c0.72 0 1.32 -0.56 1.32 -1.28 l0 -5.08 c0 -0.72 -0.6 -1.28 -1.32 -1.28 l-5.68 0 l0 7.64 l5.68 0 z M120.00000000000001 12 l-6.6 9.96 l7.2 18.04 l-6.8 0 l-4.64 -11.6 l-2.36 3.56 l0 8.04 l-6.4 0 l0 -28 l6.4 0 l0 9.64 l6.4 -9.64 l6.8 0 z M132.76000000000002 12 l0 21.6 l10.32 0 l0 6.4 l-16.72 0 l0 0 l0 -28 l6.4 0 z M166.44 18.44 l-11.2 0 l0 4.36 l8.04 0 l0 6.4 l-8.04 0 l0 4.4 l11.2 0 l0 6.4 l-17.6 0 l0 -28 l17.6 0 l0 6.44 z M186.51999999999998 12 l0 28 l-6.4 0 l0 -28 l6.4 0 z M205.67999999999998 12 l6.4 0 l0 28 l-6.4 0 l-7 -14.56 l0 14.56 l-6.4 0 l0 -28 l6.4 0 l7 14.6 l0 -14.6 z"/></g></svg>